<?xml version="1.0" encoding="utf-8"?>
<!-- Generator: Adobe Illustrator 19.0.0, SVG Export Plug-In . SVG Version: 6.00 Build 0)  -->
<svg version="1.1" id="Layer_1" xmlns="http://www.w3.org/2000/svg" xmlns:xlink="http://www.w3.org/1999/xlink" x="0px" y="0px"
	 viewBox="0 0 69.3 64" style="enable-background:new 0 0 69.3 64;" xml:space="preserve">
<style type="text/css">
	.st0{fill:#104C9B;}
</style>
<g id="XMLID_132_">
	<path id="path3496_1_" class="st0" d="M30.5,55.5C28,57,27,57.1,25.5,56.9c-2.1-0.2-5.2-2.6-6.2-7.4c-1.8-8,0.5-18.5,5.9-28.2
		C32.3,8.4,43.7,0.2,53.4,0c-0.1,0-0.1,0-0.2,0L35.8,0C26-0.2,13.5,8.1,6.2,21.4c-5.4,9.7-7.2,20-5.6,28.1c0.4,2.1,1.4,4.2,2.6,5.8
		c1.1,1.4,3.3,4,6.1,5.1c2.1,0.9,5.6,1.5,9,1.1C23.2,60.7,30.5,55.5,30.5,55.5"/>
	<path id="path3498_1_" class="st0" d="M69.3,21c0.1-2.3-0.1-4.4-0.5-6.5c-0.4-2.1-1.4-4.2-2.6-5.8c-1.1-1.4-3.6-4.1-6.1-5.2
		c-2.8-1.2-6.1-1.5-9-1.1c-4.4,0.4-12.3,5.9-12.3,5.9c2.6-1.5,3.5-1.6,5.1-1.4C46,7.3,49,9.6,50,14.4c0.7,3,0.8,6.4,0.3,9.9L69.3,21
		z"/>
	<path id="path3500_1_" class="st0" d="M38.1,38.1l8.4-4l-1.7-0.9l3.4-4.1l-4.8,1l0.3-2.1l-4.8,3.8c0,0-0.1,0.1-0.1,0.1
		c-0.1,0-0.1-0.1-0.1-0.2c0,0,0-0.1,0-0.1l3.6-6.3l-2.4,1l-0.5-4l-3.6,4l-1.6-1l-1.5,6.4v0c0,0.1-0.1,0.2-0.2,0.2
		c-0.1,0-0.1-0.1-0.2-0.1l-1.8-3.7l-1.4,2.1l-4-1l0.2,4.1l-2.4,0.9l5.2,3.9c0.1,0.1,0.1,0.2,0.1,0.3c0,0.1-0.1,0.2-0.2,0.3l-2.1,1.9
		l6.3-0.7L30,44.7l1.1,0l1.8-4.9l5.6,0.6l-0.6-2c0,0-0.1-0.1,0-0.2C37.9,38.3,38,38.2,38.1,38.1"/>
	<path id="path3502_1_" class="st0" d="M65.6,37.6c-0.7,1.8-1.3,2.8-2.5,5c-0.7,1.3-1.5,2.5-2.3,3.7C53.4,57.4,42,63.9,33.2,64
		l-17.1,0c0,0-0.1,0-0.2,0c9.7-0.2,21.1-8.4,28.2-21.4c0.2-0.4,0.5-0.8,0.7-1.2l0.1,0L65.6,37.6z"/>
</g>
</svg>
