<?xml version="1.0" encoding="utf-8"?>
<!-- Generator: Adobe Illustrator 19.0.0, SVG Export Plug-In . SVG Version: 6.00 Build 0)  -->
<svg version="1.1" id="Layer_1" xmlns="http://www.w3.org/2000/svg" xmlns:xlink="http://www.w3.org/1999/xlink" x="0px" y="0px"
	 viewBox="0 0 70.1 64" style="enable-background:new 0 0 70.1 64;" xml:space="preserve">
<style type="text/css">
	.st0{fill:#FFFFFF;}
	.st1{fill:#F37021;}
	.st2{fill:#3B9D47;}
	.st3{fill:#D72027;}
	.st4{fill:#EDE8EB;}
</style>
<g id="XMLID_34_">
	<path id="XMLID_35_" class="st0" d="M402.6-301.4c-0.9,0.1-2.3,0.3-3-0.3c-0.7-0.6-0.5-1.9-0.2-2.7c0.6-1.7,1.8-4.6,3.1-9.3
		c0.1-0.5-0.2-0.7-0.8-0.5c-0.6,0.2-3.4,1.4-5.9,2c-1.5,0.4-4.2,1.3-5.4-0.2c-0.4-0.5-0.5-1.1-0.5-1.7c0-0.4-0.2-3.7-1.1-2.4
		c-5,6.5-9.9,12-9.1,6.1c0.7-5.8,1.6-12.3,2.5-18.1c0.1-0.9,0-1.3-0.9-0.7c-0.8,0.5-1.7,1-2.5,1.5c-1,0.7-2.5,0.9-3.5,0.1
		c-1-0.8-4.8-10-5.4-11.2c-0.5-1-0.6-1-1.2,0c-0.4,0.7-3,6.4-4.5,8.9c-1.2,2.1-4.1,0.7-5.2,0c-0.6-0.4-1-0.8-1.6-1.1
		c-0.2-0.1-0.5-0.3-0.8-0.2c-0.4,0.1-0.2,1-0.2,1.3c1,4.5,3,14.7,3,16.9c0,2.1-1.3,1.4-2,0.9c-0.5-0.4-5.3-4.3-10.6-6.6
		c-0.6-0.2-0.9-0.1-0.7,0.6c0.1,0.6,0.3,1.2,0.5,1.9c0.2,0.8,0.3,3.4-1.2,3.3c-3.5-0.3-7.7-0.7-9.5-0.5c-0.6,0.1-0.7,0.3-0.1,1.4
		c0.5,0.9,1.8,2.7,4.1,7.5c0.8,1.6,0.8,3.5-1.1,4.3c-0.4,0.2-1.7,0.7-2,1c-0.5,0.6,2.2,1.5,2.6,1.6c3.3,1.2,10.6,3.8,12.6,7.1
		c0.7,1-0.2,2.2-0.9,3.1c-0.3,0.4-1.8,2.5-0.3,2.2c5.5-0.9,11.1-1.1,16.8,0.7l-0.6,12.7h4.3l-0.6-11.7c4.1,1.4,8.4,1.8,12.6,1.1
		c0.9-0.1,2.4-0.4,3.5-0.8c2.4-0.8,0.9-1.3,0.4-1.4c-1.4-0.4-2.4-2.4,0-3.7c5.8-3,8.4-4.3,15.3-11.9
		C403.2-301,403-301.4,402.6-301.4"/>
</g>
<g id="XMLID_7_">
	<path id="XMLID_8_" class="st0" d="M213.2-303.4c-1.9-0.5-3.8-1.3-5.5-2.1c-0.7,2.4-1.2,5-1.5,8c1.3,0.3,4,0.8,7.3,1
		C213.1-299.1,213-301.3,213.2-303.4L213.2-303.4z M221.1-297c-0.5-1.9-0.6-3.8-0.4-5.6c-2,0.2-4.1,0-6.1-0.5c-0.2,2,0,4.1,0.4,6.5
		C217-296.5,219.1-296.6,221.1-297L221.1-297z M210-324c-0.9-2-1.6-4.1-2.1-6c-3.1,1.5-5.6,3.1-6.8,3.9c0.6,1.1,1.9,3.5,3.8,6.1
		C206.6-321.6,208.3-323,210-324L210-324z M208.8-331.8c3-0.9,5.8-1.4,8.3-1.3c0.2-2.1,0.6-4.1,1.1-6c-3.7-0.4-7-0.5-10.3-0.3
		c0,0.2,0,0.5,0,0.8C208-337.3,208.2-334.8,208.8-331.8L208.8-331.8z M215.3-295.3c0.6,2.5,1.5,5.2,2.7,8.1c1.6-0.4,4-1.1,6.6-2.2
		c-1.4-2.2-2.5-4.4-3.1-6.4C219.4-295.5,217.3-295.3,215.3-295.3L215.3-295.3z M209.6-313.1c-1.8-1.5-3.3-3.2-4.7-4.8
		c-2.2,2.7-3.8,5.2-4.5,6.4c1,0.8,3.4,2.6,6.6,4.3C207.7-309.5,208.6-311.5,209.6-313.1L209.6-313.1z M244.6-299.9
		c-0.3,1.9-0.9,3.8-1.7,5.5c4.2,1.6,9.6,2.1,16.2,1.6c-0.1-2.9-0.4-5.5-0.8-7.7C253-298.8,248.4-298.6,244.6-299.9L244.6-299.9z
		 M250.1-306c-2.6,0.1-4.8-0.6-6.7-1.5c1,2,1.4,4.2,1.3,6.4c5.7,2.1,13.1,0.5,22.2-4.7c-1.3-2.5-2.6-4.7-4-6.6
		C258.7-308.4,254.4-306.3,250.1-306L250.1-306z M238.8-288.3c2.3,1.4,5,2.6,8,3.8c1.1-2.6,1.9-5,2.5-7.2c-2.6-0.3-5-0.9-7-1.7
		C241.3-291.5,240.1-289.8,238.8-288.3L238.8-288.3z M231.9-292.3c-1.8,1.4-3.7,2.5-5.6,3.4c1.4,2,3.1,4,5.1,6.1
		c1.2-1,3.4-2.8,5.6-5.2C235-289.4,233.3-290.8,231.9-292.3L231.9-292.3z M236.4-297.1C236.4-297.1,236.3-297.1,236.4-297.1
		c-1,1.6-2.2,2.9-3.6,4.1c1.3,1.5,3,2.8,5,4.1c1.2-1.5,2.4-3.1,3.4-4.9C239.3-294.7,237.7-295.8,236.4-297.1L236.4-297.1z
		 M228.6-297.5c-0.1-0.3-0.2-0.5-0.3-0.8c0-0.1,0-0.1,0-0.2c0,0,0,0,0,0c-1.7,1.1-3.7,1.8-5.6,2.3c0.6,2,1.7,4.1,3,6.2
		c1.9-0.9,3.8-2,5.5-3.3C230-294.6,229.2-296,228.6-297.5L228.6-297.5z M242.8-307.9c-2.2-1.2-3.8-2.8-4.5-3.6c-0.3,0-0.7,0-1.1,0
		c-0.1,0.4-0.2,0.8-0.4,1.3c0,0-0.6-0.2-1.2-0.5c-0.1,0-0.2-0.1-0.2-0.1c0,0,0,0,0,0c0,0,0,0,0,0c-0.3,0.3-0.6,0.6-0.9,1
		c0,0-0.5-0.5-1-1.2c-0.2,0.1-0.4,0.2-0.6,0.2c-0.2,0.1-0.5,0.2-0.7,0.3c0,0-0.3-0.7-0.4-1.6c-0.3,0-0.6,0-0.9,0
		c-0.2,0-0.4,0-0.5-0.1c0,0,0-0.7,0.3-1.5c-0.4-0.2-0.7-0.4-1.1-0.6c0,0,0,0,0,0c0,0,0.3-0.6,0.9-1.3c-0.2-0.2-0.4-0.5-0.6-0.8
		c-0.1-0.1-0.1-0.2-0.2-0.3c0,0,0.6-0.4,1.4-0.8c-0.1-0.4-0.2-0.8-0.3-1.4c0,0,0.9-0.2,1.9-0.1c0.1-0.5,0.3-1,0.7-1.6
		c0,0,0.6,0.2,1.2,0.7c0.2-1.7,0.8-8.3-2.7-12.9c-1-1.3-2.3-2.4-3.8-3.3c-0.4,1-0.7,2-0.9,3.1c-0.2,1.1-0.3,2.1-0.3,3.2
		c3.7,3.4,4.9,9.8,5,10.1c-0.3-1.1-1.8-5.3-4.9-8.4c0.3,2.5,1.1,4.9,2.7,7c-2-2.6-3.3-5.2-3.7-7.9c-0.6-0.5-1.3-1-2.1-1.4
		c-1.6-0.8-3.3-1.3-5.3-1.4c0,1.6,0.1,3.3,0.5,4.8c0.1,0.3,0.2,0.7,0.3,1c5.3,0.8,10.1,6.2,9.9,6.1c-0.9-0.8-4.8-4-9.5-4.7
		c0.4,0.9,0.8,1.7,1.3,2.5c0.3,0.5,0.6,0.9,0.9,1.3c0.2,0.3,0.4,0.5,0.7,0.8c0.2,0,0.3,0,0.5,0c2.8,0.3,6,1.6,6.2,1.7
		c-0.7-0.2-2.6-0.7-5.1-0.9c-0.2,0-0.5,0-0.7,0l2.8,2c-1.2-0.6-2.2-1.3-3.2-2c-2.1,0-4.5,0.3-6.7,1.5c1.5,1.2,3.2,2.2,5.1,2.9
		c0.2,0.1,0.4,0.1,0.6,0.2c2.6-0.9,6-1.2,6.2-1.2c-0.7,0.1-2.7,0.6-4.9,1.5c0.8,0.1,1.7,0.2,2.5,0.2c-1,0.1-2,0.1-2.9,0
		c-1.9,0.9-4,2.2-5.5,4c2,0.6,4.1,0.8,6.3,0.5c0,0,0.1,0,0.1,0c1.9-2.3,4.1-3.7,4.8-4.1c-0.6,0.5-2.2,1.9-3.7,4
		c1.4-0.3,2.7-0.8,4-1.5c-1.5,0.8-2.9,1.5-4.4,2c-1,1.5-2,3.4-2.5,5.5c2-0.4,4-1,5.8-2.2c0.2-0.1,0.4-0.2,0.5-0.3
		c0.7-2.4,2.3-4.9,2.4-5.1c-0.3,0.6-1,2.2-1.5,4.4c0.9-0.8,1.8-1.7,2.6-2.7c-0.8,1.2-1.7,2.3-2.7,3.2c-0.4,1.9-0.5,4-0.2,6.3
		c1.4-1.1,2.7-2.4,3.7-3.9c0-0.1,0-0.2,0-0.2c-0.1-0.3-0.1-0.7-0.1-1c-0.2-2.2,0.1-4.7,0.1-4.9c0,0.7,0,2.8,0.6,5.2
		c0.6-1,1-2.2,1.3-3.4c-0.3,1.4-0.7,2.7-1.2,3.9c0.5,1.8,1.3,3.8,2.7,5.6c1-1.8,1.6-3.8,1.8-5.9c-1.7-2.4-2.4-4.7-2.6-5.5h0
		c0.1,0.3,0.3,0.7,0.6,1.2c0.5,0.8,1.1,2,2.1,3.1c0-0.9-0.1-1.7-0.2-2.6c0.2,1,0.4,2,0.5,2.9c1.3,1.6,3.1,3.2,5.3,4.3
		C243.7-303.7,243.5-305.8,242.8-307.9L242.8-307.9z M227.7-305.3c-1.7,1.3-3.6,2.2-5.8,2.6c0,0,0,0,0,0c-0.2,1.7-0.1,3.6,0.4,5.4
		c1.9-0.5,3.8-1.2,5.4-2.2c0,0,0.1-0.1,0.1-0.1c0,0,0.1,0,0.1-0.1c-0.4-2.2-0.2-4.3,0.2-6.1C228-305.6,227.9-305.5,227.7-305.3
		L227.7-305.3z M229.3-299.2c0.1,0.2,0.1,0.4,0.2,0.6c0.5,1.6,1.4,3.2,2.6,4.7c1.3-1.1,2.4-2.3,3.3-3.7c0.1-0.1,0.1-0.2,0.2-0.3
		c-1.4-1.7-2.2-3.7-2.6-5.5C232-301.8,230.8-300.4,229.3-299.2L229.3-299.2z M210.1-330.9c-0.3,0.1-0.7,0.2-1,0.3c0,0,0,0.1,0,0.1
		c0.5,1.9,1.1,4,2,6c1.7-0.8,3.3-1.3,5-1.5c0.2,0,0.4-0.1,0.5-0.1c0.4,0,0.8,0,1.1,0c0-0.1-0.1-0.2-0.1-0.3c0-0.1-0.1-0.2-0.1-0.3
		c-0.5-1.7-0.6-3.4-0.6-5.2C214.9-331.9,212.6-331.6,210.1-330.9L210.1-330.9z M241.7-294.9c0.8-1.7,1.4-3.5,1.7-5.4
		c0,0,0-0.1,0-0.1c-2.2-1-3.9-2.5-5.1-4.1c0,2.2-0.4,4.4-1.4,6.3C238.3-296.8,239.9-295.7,241.7-294.9L241.7-294.9z M240.1-332.8
		c-0.9-3.8-3.5-7.4-7.8-10.7c-1.6,1.8-3.1,3.9-4.2,6.1c1.7,1,3.2,2.2,4.3,3.7c3.9,5.1,2.2,12.1,1.7,13.7c0.1,0,0.1,0.1,0.2,0.1
		c0.3-0.3,0.7-0.7,1.2-1.1c0,0,0.5,0.5,0.9,1.3l0,0c0.1,0,0.1,0,0.2-0.1c0.3-0.1,0.5-0.2,0.8-0.2c0,0,0,0,0,0c0,0,0,0,0,0
		c0.1,0,0.2,0,0.3-0.1c0,0,0.2,0.7,0.3,1.6c0.2,0,0.5,0,0.8,0.1c0.2,0,0.4,0.1,0.7,0.1c0,0-0.1,0.7-0.4,1.5c0.2,0.1,0.4,0.3,0.6,0.4
		c0.1,0.1,0.3,0.2,0.4,0.3c0,0-0.4,0.6-1,1.2c0.2,0.3,0.5,0.7,0.7,1.1c0,0,0,0.1,0,0.1c0,0-0.6,0.4-1.5,0.7c0.1,0.4,0.1,0.9,0.2,1.4
		c0,0-0.1,0-0.2,0c0,0-0.1,0-0.1,0c0.2,0.1,0.4,0.3,0.6,0.5c0.8,0.6,2,1.4,3.4,2.1c-0.5-1.1-1.1-2.2-2-3.2c0.9,1.1,1.7,2.2,2.4,3.4
		c2.1,1,4.6,1.7,7.3,1.6c6.2-0.3,12.4-4.9,18.5-13.7c-2-1.5-3.9-2.8-5.7-3.9c-2.2,5.5-5.2,9.3-9,11.3c-1.4,0.7-2.8,1.1-4.1,1.3
		c-4.2,0.6-9.1-1.4-9.3-1.4c1.4,0.4,7.7,1.9,12.9-0.9c5.4-2.9,9.1-9.6,10.9-19.9c-2.8-0.6-5.4-1-7.7-1.2c0.4,5.9-0.8,10.5-3.4,14
		c-3.8,5.1-12.1,5.6-12.3,5.6c0.4-0.1,1.3-0.2,2.3-0.6c2.6-0.8,6.5-2.4,9-5.8c3.7-5,4.2-12.7,1.4-23.1c-2.8,0.6-5.3,1.3-7.5,2.1
		c3.1,5.4,4.2,10.3,3.2,14.7c-1.3,6.4-7.5,9.6-8.7,10.2c0.7-0.5,2.7-2,4.6-4.3c1.3-1.7,2.5-3.7,3-6.2c1.3-6-1.6-13.2-8.4-21.4
		c-1.2,0.9-4,3-6.8,5.9c4.5,3.4,7.2,7.2,8.2,11.3c1.3,5.7-1.9,10.7-3.2,12.5c0,0,0,0,0,0s-0.1,0.2-0.3,0.4c0.4-0.7,1.2-2.2,1.8-4.2
		C240.4-326.8,240.9-329.8,240.1-332.8L240.1-332.8z M213.4-304.6c0.4-1.9,1-3.6,1.9-5.1c-1.7-0.7-3.3-1.6-4.7-2.7
		c-1,1.6-1.8,3.5-2.5,5.6C209.7-305.9,211.6-305.1,213.4-304.6L213.4-304.6z M220.9-303.8c0.3-1.5,0.9-2.9,1.6-4.1
		c0.2-0.4,0.5-0.8,0.7-1.2c-2.2,0.5-4.4,0.5-6.6-0.2c0,0,0,0,0,0.1c-0.9,1.4-1.5,3.1-1.8,4.9C216.8-303.8,218.8-303.6,220.9-303.8
		L220.9-303.8z M231.3-344.2c-2.2-1.5-4.7-3-7.7-4.4c-0.5,0.9-2.4,4.2-3.9,8.4c2.8,0.5,5.2,1.2,7.3,2.3
		C228.2-340.3,229.7-342.4,231.3-344.2L231.3-344.2z M211.3-313.4c1.5,1.1,3.1,2.1,4.8,2.7c0.8-1,1.7-1.8,2.7-2.5
		c0.8-0.5,1.7-1,2.5-1.3c-0.2,0-0.4-0.1-0.6-0.1c-2.1-0.4-3.9-1.3-5.6-2.6C213.7-316.2,212.4-314.9,211.3-313.4L211.3-313.4z
		 M225.4-330.7c0-0.8,0-1.7,0.2-2.6c0.2-1.2,0.6-2.4,1-3.5c-2-1-4.4-1.8-7.2-2.2c-0.6,1.9-1,3.8-1.1,5.9c2.1,0.2,4.1,0.7,5.8,1.6
		C224.5-331.3,225-331,225.4-330.7L225.4-330.7z M221.8-320.1c-0.3-0.2-0.5-0.5-0.7-0.7c-1.2-1.2-2.1-2.5-2.8-4c-0.5,0-1,0-1.5,0
		c-1.7,0.1-3.4,0.6-5.1,1.4c0.9,1.7,2,3.3,3.4,4.7c0,0,0.1,0.1,0.1,0.1c0,0,0,0,0.1,0C217.4-319.9,219.7-320.2,221.8-320.1
		L221.8-320.1z M205.7-319C205.8-319,205.8-318.9,205.7-319c1.3,1.7,2.8,3.4,4.5,4.8c1-1.4,2.1-2.5,3.3-3.5c0.2-0.1,0.4-0.3,0.5-0.4
		c0,0,0,0,0,0c-1.4-1.4-2.6-3.1-3.5-4.8c-1.4,0.8-2.7,1.8-4.1,3.1C206.3-319.5,206-319.2,205.7-319L205.7-319z"/>
</g>
<g id="XMLID_65_">
	<path id="XMLID_66_" class="st1" d="M402.6-187.5c-0.9,0.1-2.3,0.3-3-0.3c-0.7-0.6-0.5-1.9-0.2-2.7c0.6-1.7,1.8-4.6,3.1-9.3
		c0.1-0.5-0.2-0.7-0.8-0.5c-0.6,0.2-3.4,1.4-5.9,2c-1.5,0.4-4.2,1.3-5.4-0.2c-0.4-0.5-0.5-1.1-0.5-1.7c0-0.4-0.2-3.7-1.1-2.4
		c-5,6.5-9.9,12-9.1,6.1c0.7-5.8,1.6-12.3,2.5-18.1c0.1-0.9,0-1.3-0.9-0.7c-0.8,0.5-1.7,1-2.5,1.5c-1,0.7-2.5,0.9-3.5,0.1
		c-1-0.8-4.8-10-5.4-11.2c-0.5-1-0.6-1-1.2,0c-0.4,0.7-3,6.4-4.5,8.9c-1.2,2.1-4.1,0.7-5.2,0c-0.6-0.4-1-0.8-1.6-1.1
		c-0.2-0.1-0.5-0.3-0.8-0.2c-0.4,0.1-0.2,1-0.2,1.3c1,4.5,3,14.7,3,16.9c0,2.1-1.3,1.4-2,0.9c-0.5-0.4-5.3-4.3-10.6-6.6
		c-0.6-0.2-0.9-0.1-0.7,0.6c0.1,0.6,0.3,1.2,0.5,1.9c0.2,0.8,0.3,3.4-1.2,3.3c-3.5-0.3-7.7-0.7-9.5-0.5c-0.6,0.1-0.7,0.3-0.1,1.4
		c0.5,0.9,1.8,2.7,4.1,7.5c0.8,1.6,0.8,3.5-1.1,4.3c-0.4,0.2-1.7,0.7-2,1c-0.5,0.6,2.2,1.5,2.6,1.6c3.3,1.2,10.6,3.8,12.6,7.1
		c0.7,1-0.2,2.2-0.9,3.1c-0.3,0.4-1.8,2.5-0.3,2.2c5.5-0.9,11.1-1.1,16.8,0.7l-0.6,12.7h4.3l-0.6-11.7c4.1,1.4,8.4,1.8,12.6,1.1
		c0.9-0.1,2.4-0.4,3.5-0.8c2.4-0.8,0.9-1.3,0.4-1.4c-1.4-0.4-2.4-2.4,0-3.7c5.8-3,8.4-4.3,15.3-11.9
		C403.2-187.2,403-187.6,402.6-187.5"/>
</g>
<g id="XMLID_38_">
	<path id="XMLID_39_" class="st2" d="M213.2-189.6c-1.9-0.5-3.8-1.3-5.5-2.1c-0.7,2.4-1.2,5-1.5,8c1.3,0.3,4,0.8,7.3,1
		C213.1-185.2,213-187.5,213.2-189.6L213.2-189.6z M221.1-183.2c-0.5-1.9-0.6-3.8-0.4-5.6c-2,0.2-4.1,0-6.1-0.5
		c-0.2,2,0,4.1,0.4,6.5C217-182.7,219.1-182.8,221.1-183.2L221.1-183.2z M210-210.2c-0.9-2-1.6-4.1-2.1-6c-3.1,1.5-5.6,3.1-6.8,3.9
		c0.6,1.1,1.9,3.5,3.8,6.1C206.6-207.8,208.3-209.2,210-210.2L210-210.2z M208.8-218c3-0.9,5.8-1.4,8.3-1.3c0.2-2.1,0.6-4.1,1.1-6
		c-3.7-0.4-7-0.5-10.3-0.3c0,0.2,0,0.5,0,0.8C208-223.5,208.2-220.9,208.8-218L208.8-218z M215.3-181.5c0.6,2.5,1.5,5.2,2.7,8.1
		c1.6-0.4,4-1.1,6.6-2.2c-1.4-2.2-2.5-4.4-3.1-6.4C219.4-181.6,217.3-181.5,215.3-181.5L215.3-181.5z M209.6-199.3
		c-1.8-1.5-3.3-3.2-4.7-4.8c-2.2,2.7-3.8,5.2-4.5,6.4c1,0.8,3.4,2.6,6.6,4.3C207.7-195.7,208.6-197.6,209.6-199.3L209.6-199.3z
		 M244.6-186.1c-0.3,1.9-0.9,3.8-1.7,5.5c4.2,1.6,9.6,2.1,16.2,1.6c-0.1-2.9-0.4-5.5-0.8-7.7C253-185,248.4-184.8,244.6-186.1
		L244.6-186.1z M250.1-192.2c-2.6,0.1-4.8-0.6-6.7-1.5c1,2,1.4,4.2,1.3,6.4c5.7,2.1,13.1,0.5,22.2-4.7c-1.3-2.5-2.6-4.7-4-6.6
		C258.7-194.6,254.4-192.4,250.1-192.2L250.1-192.2z M238.8-174.5c2.3,1.4,5,2.6,8,3.8c1.1-2.6,1.9-5,2.5-7.2c-2.6-0.3-5-0.9-7-1.7
		C241.3-177.7,240.1-176,238.8-174.5L238.8-174.5z M231.9-178.5c-1.8,1.4-3.7,2.5-5.6,3.4c1.4,2,3.1,4,5.1,6.1
		c1.2-1,3.4-2.8,5.6-5.2C235-175.5,233.3-177,231.9-178.5L231.9-178.5z M236.4-183.3C236.4-183.3,236.3-183.3,236.4-183.3
		c-1,1.6-2.2,2.9-3.6,4.1c1.3,1.5,3,2.8,5,4.1c1.2-1.5,2.4-3.1,3.4-4.9C239.3-180.9,237.7-182,236.4-183.3L236.4-183.3z
		 M228.6-183.7c-0.1-0.3-0.2-0.5-0.3-0.8c0-0.1,0-0.1,0-0.2c0,0,0,0,0,0c-1.7,1.1-3.7,1.8-5.6,2.3c0.6,2,1.7,4.1,3,6.2
		c1.9-0.9,3.8-2,5.5-3.3C230-180.7,229.2-182.2,228.6-183.7L228.6-183.7z M242.8-194c-2.2-1.2-3.8-2.8-4.5-3.6c-0.3,0-0.7,0-1.1,0
		c-0.1,0.4-0.2,0.8-0.4,1.3c0,0-0.6-0.2-1.2-0.5c-0.1,0-0.2-0.1-0.2-0.1c0,0,0,0,0,0c0,0,0,0,0,0c-0.3,0.3-0.6,0.6-0.9,1
		c0,0-0.5-0.5-1-1.2c-0.2,0.1-0.4,0.2-0.6,0.2c-0.2,0.1-0.5,0.2-0.7,0.3c0,0-0.3-0.7-0.4-1.6c-0.3,0-0.6,0-0.9,0
		c-0.2,0-0.4,0-0.5-0.1c0,0,0-0.7,0.3-1.5c-0.4-0.2-0.7-0.4-1.1-0.6c0,0,0,0,0,0c0,0,0.3-0.6,0.9-1.3c-0.2-0.2-0.4-0.5-0.6-0.8
		c-0.1-0.1-0.1-0.2-0.2-0.3c0,0,0.6-0.4,1.4-0.8c-0.1-0.4-0.2-0.8-0.3-1.4c0,0,0.9-0.2,1.9-0.1c0.1-0.5,0.3-1,0.7-1.6
		c0,0,0.6,0.2,1.2,0.7c0.2-1.7,0.8-8.3-2.7-12.9c-1-1.3-2.3-2.4-3.8-3.3c-0.4,1-0.7,2-0.9,3.1c-0.2,1.1-0.3,2.1-0.3,3.2
		c3.7,3.4,4.9,9.8,5,10.1c-0.3-1.1-1.8-5.3-4.9-8.4c0.3,2.5,1.1,4.9,2.7,7c-2-2.6-3.3-5.2-3.7-7.9c-0.6-0.5-1.3-1-2.1-1.4
		c-1.6-0.8-3.3-1.3-5.3-1.4c0,1.6,0.1,3.3,0.5,4.8c0.1,0.3,0.2,0.7,0.3,1c5.3,0.8,10.1,6.2,9.9,6.1c-0.9-0.8-4.8-4-9.5-4.7
		c0.4,0.9,0.8,1.7,1.3,2.5c0.3,0.5,0.6,0.9,0.9,1.3c0.2,0.3,0.4,0.5,0.7,0.8c0.2,0,0.3,0,0.5,0c2.8,0.3,6,1.6,6.2,1.7
		c-0.7-0.2-2.6-0.7-5.1-0.9c-0.2,0-0.5,0-0.7,0l2.8,2c-1.2-0.6-2.2-1.3-3.2-2c-2.1,0-4.5,0.3-6.7,1.5c1.5,1.2,3.2,2.2,5.1,2.9
		c0.2,0.1,0.4,0.1,0.6,0.2c2.6-0.9,6-1.2,6.2-1.2c-0.7,0.1-2.7,0.6-4.9,1.5c0.8,0.1,1.7,0.2,2.5,0.2c-1,0.1-2,0.1-2.9,0
		c-1.9,0.9-4,2.2-5.5,4c2,0.6,4.1,0.8,6.3,0.5c0,0,0.1,0,0.1,0c1.9-2.3,4.1-3.7,4.8-4.1c-0.6,0.5-2.2,1.9-3.7,4
		c1.4-0.3,2.7-0.8,4-1.5c-1.5,0.8-2.9,1.5-4.4,2c-1,1.5-2,3.4-2.5,5.5c2-0.4,4-1,5.8-2.2c0.2-0.1,0.4-0.2,0.5-0.3
		c0.7-2.4,2.3-4.9,2.4-5.1c-0.3,0.6-1,2.2-1.5,4.4c0.9-0.8,1.8-1.7,2.6-2.7c-0.8,1.2-1.7,2.3-2.7,3.2c-0.4,1.9-0.5,4-0.2,6.3
		c1.4-1.1,2.7-2.4,3.7-3.9c0-0.1,0-0.2,0-0.2c-0.1-0.3-0.1-0.7-0.1-1c-0.2-2.2,0.1-4.7,0.1-4.9c0,0.7,0,2.8,0.6,5.2
		c0.6-1,1-2.2,1.3-3.4c-0.3,1.4-0.7,2.7-1.2,3.9c0.5,1.8,1.3,3.8,2.7,5.6c1-1.8,1.6-3.8,1.8-5.9c-1.7-2.4-2.4-4.7-2.6-5.5h0
		c0.1,0.3,0.3,0.7,0.6,1.2c0.5,0.8,1.1,2,2.1,3.1c0-0.9-0.1-1.7-0.2-2.6c0.2,1,0.4,2,0.5,2.9c1.3,1.6,3.1,3.2,5.3,4.3
		C243.7-189.9,243.5-192,242.8-194L242.8-194z M227.7-191.5c-1.7,1.3-3.6,2.2-5.8,2.6c0,0,0,0,0,0c-0.2,1.7-0.1,3.6,0.4,5.4
		c1.9-0.5,3.8-1.2,5.4-2.2c0,0,0.1-0.1,0.1-0.1c0,0,0.1,0,0.1-0.1c-0.4-2.2-0.2-4.3,0.2-6.1C228-191.8,227.9-191.6,227.7-191.5
		L227.7-191.5z M229.3-185.4c0.1,0.2,0.1,0.4,0.2,0.6c0.5,1.6,1.4,3.2,2.6,4.7c1.3-1.1,2.4-2.3,3.3-3.7c0.1-0.1,0.1-0.2,0.2-0.3
		c-1.4-1.7-2.2-3.7-2.6-5.5C232-188,230.8-186.5,229.3-185.4L229.3-185.4z M210.1-217.1c-0.3,0.1-0.7,0.2-1,0.3c0,0,0,0.1,0,0.1
		c0.5,1.9,1.1,4,2,6c1.7-0.8,3.3-1.3,5-1.5c0.2,0,0.4-0.1,0.5-0.1c0.4,0,0.8,0,1.1,0c0-0.1-0.1-0.2-0.1-0.3c0-0.1-0.1-0.2-0.1-0.3
		c-0.5-1.7-0.6-3.4-0.6-5.2C214.9-218.1,212.6-217.8,210.1-217.1L210.1-217.1z M241.7-181c0.8-1.7,1.4-3.5,1.7-5.4c0,0,0-0.1,0-0.1
		c-2.2-1-3.9-2.5-5.1-4.1c0,2.2-0.4,4.4-1.4,6.3C238.3-183,239.9-181.9,241.7-181L241.7-181z M240.1-219c-0.9-3.8-3.5-7.4-7.8-10.7
		c-1.6,1.8-3.1,3.9-4.2,6.1c1.7,1,3.2,2.2,4.3,3.7c3.9,5.1,2.2,12.1,1.7,13.7c0.1,0,0.1,0.1,0.2,0.1c0.3-0.3,0.7-0.7,1.2-1.1
		c0,0,0.5,0.5,0.9,1.3l0,0c0.1,0,0.1,0,0.2-0.1c0.3-0.1,0.5-0.2,0.8-0.2c0,0,0,0,0,0c0,0,0,0,0,0c0.1,0,0.2,0,0.3-0.1
		c0,0,0.2,0.7,0.3,1.6c0.2,0,0.5,0,0.8,0.1c0.2,0,0.4,0.1,0.7,0.1c0,0-0.1,0.7-0.4,1.5c0.2,0.1,0.4,0.3,0.6,0.4
		c0.1,0.1,0.3,0.2,0.4,0.3c0,0-0.4,0.6-1,1.2c0.2,0.3,0.5,0.7,0.7,1.1c0,0,0,0.1,0,0.1c0,0-0.6,0.4-1.5,0.7c0.1,0.4,0.1,0.9,0.2,1.4
		c0,0-0.1,0-0.2,0c0,0-0.1,0-0.1,0c0.2,0.1,0.4,0.3,0.6,0.5c0.8,0.6,2,1.4,3.4,2.1c-0.5-1.1-1.1-2.2-2-3.2c0.9,1.1,1.7,2.2,2.4,3.4
		c2.1,1,4.6,1.7,7.3,1.6c6.2-0.3,12.4-4.9,18.5-13.7c-2-1.5-3.9-2.8-5.7-3.9c-2.2,5.5-5.2,9.3-9,11.3c-1.4,0.7-2.8,1.1-4.1,1.3
		c-4.2,0.6-9.1-1.4-9.3-1.4c1.4,0.4,7.7,1.9,12.9-0.9c5.4-2.9,9.1-9.6,10.9-19.9c-2.8-0.6-5.4-1-7.7-1.2c0.4,5.9-0.8,10.5-3.4,14
		c-3.8,5.1-12.1,5.6-12.3,5.6c0.4-0.1,1.3-0.2,2.3-0.6c2.6-0.8,6.5-2.4,9-5.8c3.7-5,4.2-12.7,1.4-23.1c-2.8,0.6-5.3,1.3-7.5,2.1
		c3.1,5.4,4.2,10.3,3.2,14.7c-1.3,6.4-7.5,9.6-8.7,10.2c0.7-0.5,2.7-2,4.6-4.3c1.3-1.7,2.5-3.7,3-6.2c1.3-6-1.6-13.2-8.4-21.4
		c-1.2,0.9-4,3-6.8,5.9c4.5,3.4,7.2,7.2,8.2,11.3c1.3,5.7-1.9,10.7-3.2,12.5c0,0,0,0,0,0s-0.1,0.2-0.3,0.4c0.4-0.7,1.2-2.2,1.8-4.2
		C240.4-213,240.9-216,240.1-219L240.1-219z M213.4-190.8c0.4-1.9,1-3.6,1.9-5.1c-1.7-0.7-3.3-1.6-4.7-2.7c-1,1.6-1.8,3.5-2.5,5.6
		C209.7-192.1,211.6-191.3,213.4-190.8L213.4-190.8z M220.9-189.9c0.3-1.5,0.9-2.9,1.6-4.1c0.2-0.4,0.5-0.8,0.7-1.2
		c-2.2,0.5-4.4,0.5-6.6-0.2c0,0,0,0,0,0.1c-0.9,1.4-1.5,3.1-1.8,4.9C216.8-189.9,218.8-189.7,220.9-189.9L220.9-189.9z M231.3-230.4
		c-2.2-1.5-4.7-3-7.7-4.4c-0.5,0.9-2.4,4.2-3.9,8.4c2.8,0.5,5.2,1.2,7.3,2.3C228.2-226.4,229.7-228.5,231.3-230.4L231.3-230.4z
		 M211.3-199.5c1.5,1.1,3.1,2.1,4.8,2.7c0.8-1,1.7-1.8,2.7-2.5c0.8-0.5,1.7-1,2.5-1.3c-0.2,0-0.4-0.1-0.6-0.1
		c-2.1-0.4-3.9-1.3-5.6-2.6C213.7-202.4,212.4-201.1,211.3-199.5L211.3-199.5z M225.4-216.9c0-0.8,0-1.7,0.2-2.6
		c0.2-1.2,0.6-2.4,1-3.5c-2-1-4.4-1.8-7.2-2.2c-0.6,1.9-1,3.8-1.1,5.9c2.1,0.2,4.1,0.7,5.8,1.6C224.5-217.5,225-217.2,225.4-216.9
		L225.4-216.9z M221.8-206.3c-0.3-0.2-0.5-0.5-0.7-0.7c-1.2-1.2-2.1-2.5-2.8-4c-0.5,0-1,0-1.5,0c-1.7,0.1-3.4,0.6-5.1,1.4
		c0.9,1.7,2,3.3,3.4,4.7c0,0,0.1,0.1,0.1,0.1c0,0,0,0,0.1,0C217.4-206.1,219.7-206.4,221.8-206.3L221.8-206.3z M205.7-205.1
		C205.8-205.1,205.8-205.1,205.7-205.1c1.3,1.7,2.8,3.4,4.5,4.8c1-1.4,2.1-2.5,3.3-3.5c0.2-0.1,0.4-0.3,0.5-0.4c0,0,0,0,0,0
		c-1.4-1.4-2.6-3.1-3.5-4.8c-1.4,0.8-2.7,1.8-4.1,3.1C206.3-205.7,206-205.4,205.7-205.1L205.7-205.1z"/>
</g>
<g id="XMLID_2_">
	<g id="XMLID_3_">
		<path id="XMLID_5_" class="st3" d="M147-211.8c-0.1-0.1-0.2-0.1-0.2,0c0,0-3.1,2.4-5.7,2.8c-0.2,0-0.3-0.1-0.3-0.2
			c-0.2-0.3,0-0.9,0-1.2c0.1-0.3,0.1-0.4-0.1-0.5c-0.1-0.1-0.2,0.1-0.3,0.2c-0.8,1.1-1,1.6-2.3,2.7l0,0c-1.1,0.7-2.6,1.5-3.7,1.3
			c-0.4-0.1-0.7-0.3-0.9-0.6c-0.5-0.9-0.5-3.2,2.2-9.3c0-0.1,0-0.2,0-0.2c-0.1,0-0.1-0.1-0.2,0c0,0-1.3,0.9-2.7,0.6
			c-2.1-0.3-3.4-2.8-4-7.2c0-0.1-0.1-0.1-0.1-0.2c-0.1,0-0.1,0-0.2,0.1c-2,4-4.1,5.9-6.1,5.5c-1.4-0.2-2.3-1.5-2.3-1.5
			c0-0.1-0.1-0.1-0.2-0.1c-0.1,0-0.1,0.1-0.1,0.2c0.5,6.7-0.3,8.9-1,9.5c-0.3,0.3-0.6,0.4-1,0.3c-1.1-0.2-2.3-1.5-3.1-2.5
			c-0.7-1.3-0.8-1.8-1.2-3.1c0-0.1-0.1-0.2-0.2-0.2c-0.1,0-0.2,0.1-0.2,0.4c-0.1,0.3-0.1,1-0.4,1.2c-0.1,0.1-0.2,0.1-0.4,0
			c-2.3-1.3-4.3-4.5-4.4-4.5c0-0.1-0.1-0.1-0.2-0.1c-0.1,0-0.1,0.1-0.1,0.2c1.6,7.4,1.1,9.9,0.4,10.6c-0.2,0.3-0.6,0.4-0.9,0.3
			c-0.5-0.1-0.9-0.4-0.9-0.4c-0.1-0.1-0.2,0-0.2,0c-0.1,0.1-0.1,0.2,0,0.2l0.1,0.1c0,0,0,0,0,0.1c0,0,0,0,0.1,0.1
			c1.9,2.6,3,4.6,3.2,6c0,0.9-0.3,1.6-1,2.1c-1,0.4-2.3,0.2-2.6,0.2c0,0-0.1,0-0.1,0c-0.1,0-0.1,0-0.2,0.1c0,0.1,0,0.1,0,0.2
			c0.1,0.2,2.9,4.8,6.8,6.1c0.2,0.1,0.4,0.1,0.6,0.1c0.4,0.1,0.8,0.2,1.2,0.2c3,0.5,6.3,0.4,8.3,0.1c-1.8,4.7-6.7,5.6-6.7,5.6
			c-0.3,0.1-0.5,0.1-0.7,0.1c0,0,0,0,0,0c-0.3,0.1-0.4,0.4-0.7,1l-0.6,1.3c-0.5,1,0.6,1.2,1.1,1l0,0c1-0.3,2.1-0.6,3.1-1.1
			c1.3-0.6,2.6-1.4,3.6-2.5c1-1,1.9-2.3,2.4-3.6c0.2-0.6,0.4-1.1,0.5-1.7l0.1,0c1.8,0.9,5,2.2,8.2,2.8c0.4,0.1,0.8,0.1,1.2,0.2
			c0.2,0,0.4,0,0.6,0.1c4.1,0.1,8-3.4,8.2-3.5c0.1,0,0.1-0.1,0.1-0.2c0-0.1-0.1-0.1-0.1-0.1c0,0,0,0-0.1,0c-0.3,0-1.6-0.3-2.4-1
			c-0.6-0.7-0.6-1.4-0.3-2.3c0.6-1.3,2.3-2.8,5-4.6c0.1,0,0.1-0.1,0.1-0.1c0,0,0,0,0.1-0.1l0.1,0c0.1-0.1,0.1-0.1,0.1-0.2
			c0-0.1-0.1-0.1-0.2-0.1c0,0-0.5,0.1-0.9,0.1c-0.4-0.1-0.6-0.3-0.8-0.6c-0.4-1-0.1-3.5,3.9-9.9C147.1-211.7,147-211.8,147-211.8
			L147-211.8z"/>
		<path id="XMLID_4_" class="st3" d="M125.9-177.5l-2.2-0.7c-1.2-0.3-2.4,7.7-11,7.7h-7.1c-4.8,0-6.4-1.7-6.4-9v-40.9
			c0-3.3,2.3-4.7,4.4-5.1c0.6-0.2,1.3-0.3,1.7-1.2l0.5-1.5c0.4-1.3-0.4-1.5-1.1-1.5H82.7c-0.8,0-1.2,0.3-1.5,0.7l-0.7,1.7
			c-0.3,0.7-0.2,1.4,1,1.6c4.3,1,5.6,1.6,5.6,5.3v45c0,3.3-2.3,4.7-4.4,5.1c-0.6,0.2-1.3,0.3-1.7,1.2l-0.5,1.5
			c-0.4,1.3,0.4,1.5,1.1,1.5h40.8c2.3,0,4-0.8,4-2.2v-8.5C126.4-177,126.2-177.4,125.9-177.5L125.9-177.5z"/>
	</g>
</g>
<g id="XMLID_6_">
	<path id="path3496_2_" class="st4" d="M30.9,55.5c-2.6,1.5-3.5,1.5-5.1,1.4c-2.1-0.2-5.2-2.6-6.2-7.4c-1.8-8,0.5-18.5,5.9-28.2
		C32.7,8.4,44,0.2,53.8,0c-0.1,0-0.1,0-0.2,0L36.2,0C26.3-0.2,13.9,8.1,6.6,21.4c-5.4,9.7-7.2,20-5.6,28.1c0.4,2.1,1.4,4.2,2.6,5.8
		c1.1,1.4,3.3,4,6.1,5.1c2.1,0.9,5.6,1.5,9,1.1C23.6,60.7,30.9,55.5,30.9,55.5"/>
	<path id="path3498_2_" class="st4" d="M69.7,21c0.1-2.3-0.1-4.4-0.5-6.5c-0.4-2.1-1.4-4.2-2.6-5.8c-1.1-1.4-3.6-4.1-6.1-5.2
		c-2.8-1.2-6.1-1.5-9-1.1c-4.4,0.4-12.3,5.9-12.3,5.9c2.6-1.5,3.5-1.6,5.1-1.4c2.1,0.2,5.1,2.6,6.2,7.4c0.7,3,0.8,6.4,0.3,9.9
		L69.7,21z"/>
	<path id="path3500_2_" class="st4" d="M38.5,38.1l8.4-4l-1.7-0.9l3.4-4.1l-4.8,1l0.3-2.1l-4.8,3.8c0,0-0.1,0.1-0.1,0.1
		c-0.1,0-0.1-0.1-0.1-0.2c0,0,0-0.1,0-0.1l3.6-6.3l-2.4,1l-0.5-4l-3.6,4l-1.6-1l-1.5,6.4v0c0,0.1-0.1,0.2-0.2,0.2
		c-0.1,0-0.1-0.1-0.2-0.1l-1.8-3.7l-1.4,2.1l-4-1l0.2,4.1l-2.4,0.9l5.2,3.9c0.1,0.1,0.1,0.2,0.1,0.3c0,0.1-0.1,0.2-0.2,0.3l-2.1,1.9
		l6.3-0.7l-2.1,4.9l1.1,0l1.8-4.9l5.6,0.6l-0.6-2c0,0-0.1-0.1,0-0.2C38.3,38.3,38.4,38.2,38.5,38.1"/>
	<path id="path3502_2_" class="st4" d="M66,37.6c-0.7,1.8-1.3,2.8-2.5,5c-0.7,1.3-1.5,2.5-2.3,3.7C53.8,57.4,42.3,63.9,33.6,64
		l-17.1,0c0,0-0.1,0-0.2,0c9.7-0.2,21.1-8.4,28.2-21.4c0.2-0.4,0.5-0.8,0.7-1.2l0.1,0L66,37.6z"/>
</g>
<rect id="XMLID_37_" x="-528.8" y="-585.2" class="st2" width="142.5" height="1213.7"/>
<rect id="XMLID_36_" x="-386.8" y="-585.2" class="st1" width="142.5" height="1213.7"/>
</svg>
