<?xml version="1.0" encoding="utf-8"?>
<!-- Generator: Adobe Illustrator 19.0.0, SVG Export Plug-In . SVG Version: 6.00 Build 0)  -->
<svg version="1.1" id="Layer_1" xmlns="http://www.w3.org/2000/svg" xmlns:xlink="http://www.w3.org/1999/xlink" x="0px" y="0px"
	 viewBox="186.5 9.3 162 40" style="enable-background:new 186.5 9.3 162 40;" xml:space="preserve">
<style type="text/css">
	.st0{fill:#231F20;}
	.st1{fill:#EC2024;}
</style>
<g>
	<g>
		<path class="st0" d="M233.2,10.1v2.9h-7.4v2.6h6.7v2.9l-6.7,0v2.6h7.6v2.9h-11.3v-14H233.2z"/>
		<path class="st0" d="M240.8,10.1V21h5.9v3.1h-9.6v-14H240.8z"/>
		<path class="st0" d="M260.9,10.1v2.9h-7.4v2.6h6.7v2.9l-6.7,0v2.6h7.6v2.9h-11.3v-14H260.9z"/>
		<path class="st0" d="M271.5,13.1c-2.2,0-3.8,1.7-3.8,3.9c0,2.3,1.6,4,3.8,4c1.2,0,2.5-0.6,3.5-1.6l2.1,2.3
			c-1.5,1.6-3.7,2.6-5.8,2.6c-4.2,0-7.4-3.1-7.4-7.2c0-4,3.2-7.1,7.5-7.1c2.1,0,4.3,0.9,5.7,2.4L275,15
			C274.1,13.9,272.7,13.1,271.5,13.1z"/>
		<path class="st0" d="M291,10.1v3h-4.2v11h-3.7v-11H279v-3H291z"/>
		<path class="st0" d="M297.6,10.1v14H294v-14H297.6z"/>
		<path class="st0" d="M316.1,17.1c0,4.1-3.2,7.2-7.6,7.2s-7.6-3.1-7.6-7.2c0-4.1,3.2-7.1,7.6-7.1S316.1,13.1,316.1,17.1z
			 M304.7,17.2c0,2.3,1.8,4,3.9,4c2.1,0,3.8-1.8,3.8-4c0-2.3-1.7-4-3.8-4S304.7,14.9,304.7,17.2z"/>
		<path class="st0" d="M322.7,10.1l6.4,8.4v-8.4h3.4v14h-3.2l-6.4-8.4v8.4h-3.4v-14H322.7z"/>
		<path class="st0" d="M341.8,13c-0.9,0-1.5,0.3-1.5,1c0,2.3,7.4,1,7.4,6c0,2.9-2.5,4.3-5.6,4.3c-2.3,0-4.8-0.9-6.5-2.2l1.4-2.9
			c1.4,1.2,3.6,2.1,5.1,2.1c1.1,0,1.8-0.4,1.8-1.1c0-2.4-7.4-0.9-7.4-5.9c0-2.6,2.2-4.3,5.6-4.3c2.1,0,4.1,0.6,5.6,1.6l-1.4,2.9
			C344.8,13.6,343,13,341.8,13z"/>
		<path class="st0" d="M231.1,34.8c-2.8,0-4.9,2.2-4.9,5.1c0,2.9,2.1,5.2,4.9,5.2c1.5,0,3.2-0.8,4.5-2.1l2.8,3
			c-2,2.1-4.9,3.4-7.6,3.4c-5.5,0-9.6-4-9.6-9.4c0-5.3,4.2-9.2,9.8-9.2c2.7,0,5.5,1.2,7.4,3.1l-2.8,3.3
			C234.4,35.8,232.7,34.8,231.1,34.8z"/>
		<path class="st0" d="M254.3,45.9h-7.9l-1.3,3.2h-4.9l7.8-18.2h4.9l7.6,18.2h-5.1L254.3,45.9z M252.9,42.3l-2.5-6.5l-2.5,6.5H252.9
			z"/>
		<path class="st0" d="M268.4,30.9l8.3,11v-11h4.4v18.2h-4.2l-8.3-10.9v10.9h-4.4V30.9H268.4z"/>
		<path class="st0" d="M298.7,45.9h-7.9l-1.3,3.2h-4.9l7.8-18.2h4.9l7.6,18.2H300L298.7,45.9z M297.3,42.3l-2.5-6.5l-2.5,6.5H297.3z
			"/>
		<path class="st0" d="M326.2,40c0,5.4-4,9.1-9.9,9.1h-7.7V30.9h7.9C322.2,30.9,326.2,34.6,326.2,40z M321.3,40.1
			c0-3.1-2.1-5.3-4.9-5.3h-3v10.5h3.2C319.4,45.3,321.3,43.2,321.3,40.1z"/>
		<path class="st0" d="M342.1,45.9h-7.9l-1.3,3.2h-4.9l7.8-18.2h4.9l7.6,18.2h-5.1L342.1,45.9z M340.7,42.3l-2.5-6.5l-2.5,6.5H340.7
			z"/>
	</g>
	<g>
		<path class="st1" d="M216,49.2V9.3l-5.2,8.7c-0.6,0.9-1.6,0.9-2.7,0.3l-3.7-1.8l2.8,13.4c0.6,2.4-1.3,2.4-2.2,1.4l-6.5-6.6
			l-1.1,3.4c-0.1,0.4-0.7,0.9-1.5,0.8l-8.2-1.6l2.2,7.1c0.5,1.6,0.8,2.2-0.5,2.7l-2.9,1.3l14.8,10.7H216z"/>
	</g>
</g>
</svg>
