<?xml version="1.0" encoding="utf-8"?>
<!-- Generator: Adobe Illustrator 19.0.0, SVG Export Plug-In . SVG Version: 6.00 Build 0)  -->
<svg version="1.1" id="Layer_1" xmlns="http://www.w3.org/2000/svg" xmlns:xlink="http://www.w3.org/1999/xlink" x="0px" y="0px"
	 viewBox="0 0 66.7 66" style="enable-background:new 0 0 66.7 66;" xml:space="preserve">
<style type="text/css">
	.st0{fill:#3B9D47;}
</style>
<g id="XMLID_293_">
	<path id="XMLID_294_" class="st0" d="M12.6,45.8c-1.9-0.5-3.7-1.3-5.4-2.1c-0.7,2.3-1.2,4.9-1.5,7.8c1.2,0.3,3.9,0.8,7.1,1
		C12.4,50.1,12.3,47.9,12.6,45.8L12.6,45.8z M20.3,52.1c-0.5-1.9-0.6-3.7-0.4-5.4c-2,0.2-4,0-5.9-0.5c-0.2,1.9,0,4.1,0.4,6.4
		C16.2,52.6,18.3,52.5,20.3,52.1L20.3,52.1z M9.4,25.7c-0.9-1.9-1.6-4-2-5.9c-3.1,1.4-5.5,3-6.6,3.8c0.6,1.1,1.8,3.4,3.7,6
		C6.1,28,7.7,26.7,9.4,25.7L9.4,25.7z M8.2,18c3-0.9,5.7-1.4,8.1-1.3c0.2-2,0.6-4,1.1-5.9c-3.6-0.4-6.9-0.5-10.1-0.3
		c0,0.2,0,0.5,0,0.8C7.4,12.7,7.6,15.1,8.2,18L8.2,18z M14.6,53.7c0.6,2.4,1.5,5.1,2.7,8c1.6-0.4,3.9-1.1,6.4-2.2
		c-1.4-2.2-2.4-4.3-3-6.3C18.5,53.6,16.5,53.7,14.6,53.7L14.6,53.7z M9,36.3c-1.7-1.4-3.3-3.1-4.6-4.7c-2.2,2.6-3.7,5.1-4.4,6.3
		c0.9,0.7,3.3,2.5,6.4,4.2C7.1,39.9,8,37.9,9,36.3L9,36.3z M43.2,49.2c-0.3,1.9-0.9,3.7-1.7,5.4c4.1,1.6,9.4,2.1,15.9,1.6
		c-0.1-2.8-0.4-5.3-0.8-7.6C51.5,50.3,47,50.5,43.2,49.2L43.2,49.2z M48.6,43.3c-2.5,0.1-4.7-0.6-6.6-1.5c0.9,2,1.4,4.1,1.3,6.3
		c5.6,2.1,12.9,0.5,21.7-4.6c-1.3-2.5-2.6-4.6-3.9-6.5C57,40.9,52.8,43,48.6,43.3L48.6,43.3z M37.6,60.6c2.2,1.3,4.8,2.6,7.8,3.7
		c1.1-2.5,1.9-4.9,2.4-7C45.3,57,43,56.5,41,55.7C40,57.5,38.8,59.2,37.6,60.6L37.6,60.6z M30.8,56.7c-1.7,1.3-3.6,2.4-5.5,3.3
		c1.4,1.9,3,3.9,5,6c1.2-0.9,3.3-2.7,5.5-5.1C33.8,59.6,32.2,58.2,30.8,56.7L30.8,56.7z M35.2,52C35.2,52,35.2,52,35.2,52
		c-1,1.5-2.2,2.8-3.5,4c1.3,1.4,2.9,2.8,4.9,4c1.2-1.4,2.4-3,3.3-4.8C38.1,54.4,36.5,53.3,35.2,52L35.2,52z M27.6,51.6
		c-0.1-0.3-0.2-0.5-0.3-0.8c0-0.1,0-0.1,0-0.2c0,0,0,0,0,0c-1.7,1.1-3.6,1.8-5.5,2.3c0.6,2,1.6,4,3,6.1c1.8-0.9,3.7-1.9,5.4-3.2
		C29,54.5,28.2,53.1,27.6,51.6L27.6,51.6z M41.5,41.5c-2.2-1.2-3.7-2.7-4.4-3.5c-0.3,0-0.7,0-1.1,0c-0.1,0.4-0.2,0.8-0.4,1.3
		c0,0-0.6-0.2-1.2-0.5c-0.1,0-0.1-0.1-0.2-0.1c0,0,0,0,0,0c0,0,0,0,0,0c-0.3,0.3-0.6,0.6-0.9,1c0,0-0.5-0.5-1-1.2
		c-0.2,0.1-0.4,0.2-0.6,0.2c-0.2,0.1-0.5,0.2-0.7,0.3c0,0-0.3-0.7-0.4-1.6c-0.3,0-0.5,0-0.8,0c-0.2,0-0.3,0-0.5-0.1
		c0,0,0-0.7,0.3-1.5c-0.3-0.2-0.7-0.4-1.1-0.6c0,0,0,0,0,0c0,0,0.3-0.6,0.9-1.2c-0.2-0.2-0.4-0.5-0.6-0.8c-0.1-0.1-0.1-0.2-0.2-0.3
		c0,0,0.6-0.4,1.3-0.8c-0.1-0.4-0.2-0.8-0.3-1.3c0,0,0.9-0.2,1.9-0.1c0.1-0.5,0.3-1,0.6-1.5c0,0,0.6,0.2,1.2,0.7
		c0.2-1.6,0.8-8.1-2.7-12.6c-1-1.3-2.2-2.4-3.7-3.3c-0.4,1-0.7,2-0.9,3c-0.2,1-0.3,2.1-0.3,3.1c3.6,3.3,4.8,9.6,4.9,9.9
		c-0.3-1.1-1.7-5.2-4.8-8.2c0.2,2.4,1.1,4.8,2.7,6.9c-1.9-2.5-3.2-5.1-3.6-7.8c-0.6-0.5-1.3-1-2-1.3c-1.5-0.8-3.3-1.3-5.2-1.4
		c0,1.6,0.1,3.2,0.5,4.7c0.1,0.3,0.2,0.7,0.3,1c5.1,0.8,9.8,6.1,9.7,5.9c-0.9-0.8-4.7-3.9-9.3-4.6c0.3,0.8,0.8,1.7,1.3,2.5
		c0.3,0.4,0.6,0.9,0.9,1.3c0.2,0.3,0.4,0.5,0.7,0.8c0.2,0,0.3,0,0.5,0c2.8,0.3,5.9,1.6,6,1.7c-0.7-0.2-2.6-0.7-5-0.8
		c-0.2,0-0.5,0-0.7,0l2.7,1.9C24,31.7,22.9,31,22,30.3c-2.1,0-4.4,0.3-6.6,1.4c1.5,1.2,3.2,2.2,5,2.8c0.2,0.1,0.4,0.1,0.6,0.2
		c2.6-0.9,5.9-1.2,6.1-1.2c-0.7,0.1-2.7,0.5-4.8,1.5c0.8,0.1,1.6,0.2,2.5,0.2c-1,0.1-1.9,0.1-2.9,0c-1.9,0.9-3.9,2.1-5.4,3.9
		c2,0.5,4.1,0.8,6.1,0.5c0,0,0.1,0,0.1,0c1.9-2.3,4-3.7,4.7-4.1c-0.6,0.5-2.1,1.8-3.6,3.9c1.3-0.3,2.7-0.8,4-1.5
		c-1.4,0.8-2.8,1.5-4.3,1.9c-1,1.5-1.9,3.3-2.4,5.3c2-0.4,3.9-1,5.7-2.1c0.2-0.1,0.3-0.2,0.5-0.3c0.7-2.4,2.2-4.8,2.3-5
		c-0.3,0.6-1,2.2-1.5,4.3c0.9-0.7,1.8-1.6,2.5-2.7c-0.8,1.2-1.7,2.2-2.6,3.1c-0.4,1.8-0.5,4-0.1,6.1c1.4-1.1,2.7-2.3,3.7-3.8
		c0-0.1,0-0.2,0-0.2c-0.1-0.3-0.1-0.7-0.1-1c-0.2-2.1,0.1-4.6,0.1-4.8c0,0.7,0,2.7,0.6,5.1c0.6-1,1-2.1,1.3-3.3
		c-0.3,1.4-0.7,2.7-1.2,3.8c0.5,1.8,1.3,3.7,2.6,5.5c0.9-1.8,1.6-3.7,1.8-5.8c-1.6-2.3-2.4-4.6-2.6-5.4h0c0.1,0.3,0.3,0.7,0.6,1.2
		c0.5,0.8,1.1,1.9,2,3.1c0-0.8-0.1-1.7-0.2-2.5c0.2,1,0.4,1.9,0.5,2.8c1.3,1.6,3,3.1,5.2,4.2C42.4,45.5,42.2,43.5,41.5,41.5
		L41.5,41.5z M26.7,43.9c-1.7,1.3-3.6,2.2-5.7,2.6c0,0,0,0,0,0c-0.2,1.7-0.1,3.5,0.4,5.3c1.9-0.4,3.7-1.1,5.3-2.2
		c0,0,0.1-0.1,0.1-0.1c0,0,0.1,0,0.1-0.1c-0.4-2.1-0.2-4.2,0.2-6C27,43.7,26.9,43.8,26.7,43.9L26.7,43.9z M28.3,50
		c0.1,0.2,0.1,0.4,0.2,0.5c0.5,1.6,1.4,3.1,2.5,4.6c1.2-1.1,2.4-2.3,3.2-3.7c0.1-0.1,0.1-0.2,0.2-0.3c-1.4-1.7-2.2-3.6-2.6-5.4
		C30.9,47.4,29.8,48.8,28.3,50L28.3,50z M9.4,18.9c-0.3,0.1-0.7,0.2-1,0.3c0,0,0,0.1,0,0.1c0.5,1.9,1.1,3.9,2,5.8
		c1.6-0.8,3.2-1.3,4.9-1.5c0.2,0,0.3-0.1,0.5-0.1c0.4,0,0.8,0,1.1,0c0-0.1-0.1-0.2-0.1-0.3c0-0.1-0.1-0.2-0.1-0.3
		c-0.4-1.7-0.6-3.4-0.6-5.1C14.2,17.9,11.9,18.2,9.4,18.9L9.4,18.9z M40.4,54.2c0.8-1.7,1.4-3.4,1.7-5.3c0,0,0-0.1,0-0.1
		c-2.2-1-3.8-2.5-5-4c0,2.2-0.4,4.3-1.4,6.2C37,52.3,38.6,53.4,40.4,54.2L40.4,54.2z M38.9,17c-0.9-3.8-3.5-7.3-7.7-10.4
		c-1.6,1.8-3,3.8-4.1,6c1.7,1,3.1,2.2,4.2,3.6c3.8,5,2.2,11.8,1.7,13.4c0.1,0,0.1,0.1,0.2,0.1c0.3-0.3,0.7-0.7,1.2-1.1
		c0,0,0.5,0.5,0.9,1.3l0,0c0.1,0,0.1,0,0.2-0.1c0.2-0.1,0.5-0.2,0.8-0.2c0,0,0,0,0,0c0,0,0,0,0,0c0.1,0,0.2,0,0.3-0.1
		c0,0,0.2,0.7,0.3,1.6c0.2,0,0.5,0,0.7,0.1c0.2,0,0.4,0.1,0.7,0.1c0,0-0.1,0.7-0.4,1.5c0.2,0.1,0.4,0.2,0.6,0.4
		c0.1,0.1,0.3,0.2,0.4,0.3c0,0-0.4,0.6-1,1.2c0.2,0.3,0.5,0.7,0.7,1.1c0,0,0,0.1,0,0.1c0,0-0.6,0.4-1.4,0.7c0.1,0.4,0.1,0.8,0.2,1.4
		c0,0-0.1,0-0.2,0c0,0-0.1,0-0.1,0c0.2,0.1,0.4,0.3,0.6,0.4c0.8,0.6,1.9,1.3,3.3,2c-0.5-1.1-1.1-2.1-1.9-3.1
		c0.9,1.1,1.7,2.2,2.3,3.3c2,0.9,4.5,1.7,7.1,1.5c6-0.3,12.1-4.8,18.1-13.4c-2-1.5-3.8-2.8-5.6-3.8C59,30.3,56,34,52.3,36
		c-1.3,0.7-2.7,1.1-4,1.3c-4.2,0.6-8.9-1.3-9.1-1.4c1.3,0.4,7.5,1.8,12.6-0.9c5.3-2.8,8.9-9.4,10.7-19.5c-2.8-0.6-5.3-1-7.6-1.2
		c0.3,5.7-0.7,10.3-3.3,13.7c-3.7,5-11.8,5.5-12,5.5c0.4-0.1,1.2-0.2,2.3-0.5c2.5-0.7,6.3-2.4,8.8-5.6c3.6-4.9,4.1-12.5,1.4-22.6
		c-2.7,0.6-5.2,1.3-7.3,2.1c3,5.3,4.1,10.1,3.2,14.4c-1.3,6.3-7.3,9.4-8.6,10c0.7-0.5,2.7-1.9,4.5-4.2c1.3-1.6,2.4-3.7,2.9-6
		C48,15,45.3,8,38.6,0c-1.2,0.9-4,2.9-6.6,5.7c4.4,3.3,7.1,7,8,11c1.3,5.6-1.8,10.5-3.1,12.2c0,0,0,0,0,0s-0.1,0.2-0.3,0.4
		c0.4-0.6,1.2-2.1,1.8-4.1C39.1,22.9,39.6,20,38.9,17L38.9,17z M12.7,44.7c0.3-1.9,1-3.5,1.9-5c-1.7-0.6-3.2-1.6-4.6-2.6
		c-1,1.6-1.8,3.4-2.5,5.5C9.1,43.4,10.9,44.1,12.7,44.7L12.7,44.7z M20,45.5c0.3-1.5,0.9-2.8,1.6-4c0.2-0.4,0.5-0.8,0.7-1.2
		c-2.1,0.5-4.3,0.5-6.4-0.2c0,0,0,0,0,0.1c-0.9,1.4-1.5,3-1.8,4.8C16,45.5,18,45.7,20,45.5L20,45.5z M30.2,5.9
		c-2.1-1.5-4.6-2.9-7.5-4.3c-0.5,0.8-2.4,4.1-3.8,8.2c2.7,0.5,5.1,1.2,7.2,2.2C27.2,9.8,28.7,7.7,30.2,5.9L30.2,5.9z M10.6,36.1
		c1.4,1.1,3,2,4.7,2.7c0.8-1,1.7-1.8,2.7-2.4c0.8-0.5,1.6-0.9,2.5-1.3c-0.2,0-0.4-0.1-0.6-0.1c-2-0.4-3.8-1.3-5.5-2.6
		C13,33.3,11.7,34.5,10.6,36.1L10.6,36.1z M24.4,19.1c0-0.8,0-1.7,0.2-2.5c0.2-1.2,0.6-2.3,1-3.4c-2-1-4.3-1.7-7-2.2
		c-0.5,1.8-1,3.8-1.1,5.7c2.1,0.2,4,0.7,5.7,1.5C23.6,18.5,24,18.8,24.4,19.1L24.4,19.1z M20.9,29.5c-0.3-0.2-0.5-0.5-0.7-0.7
		c-1.2-1.2-2.1-2.5-2.7-3.9c-0.5,0-1,0-1.5,0c-1.7,0.1-3.3,0.6-5,1.4c0.9,1.7,2,3.2,3.4,4.6c0,0,0.1,0.1,0.1,0.1c0,0,0,0,0.1,0
		C16.6,29.7,18.8,29.4,20.9,29.5L20.9,29.5z M5.2,30.6C5.2,30.6,5.2,30.6,5.2,30.6c1.3,1.7,2.8,3.3,4.4,4.7c1-1.4,2-2.5,3.2-3.4
		c0.2-0.1,0.4-0.3,0.5-0.4c0,0,0,0,0,0c-1.4-1.4-2.5-3-3.4-4.7c-1.3,0.8-2.7,1.8-4,3.1C5.7,30.1,5.5,30.3,5.2,30.6L5.2,30.6z"/>
</g>
</svg>
