<?xml version="1.0" encoding="utf-8"?>
<!-- Generator: Adobe Illustrator 19.0.0, SVG Export Plug-In . SVG Version: 6.00 Build 0)  -->
<svg version="1.1" id="Layer_1" xmlns="http://www.w3.org/2000/svg" xmlns:xlink="http://www.w3.org/1999/xlink" x="0px" y="0px"
	 viewBox="0 0 69.3 64" style="enable-background:new 0 0 69.3 64;" xml:space="preserve">
<style type="text/css">
	.st0{fill:#D72027;}
</style>
<g id="XMLID_185_">
	<g id="XMLID_186_">
		<path id="XMLID_188_" class="st0" d="M68.1,17.9c-0.1-0.1-0.2-0.1-0.2,0c0,0-3.1,2.4-5.7,2.8c-0.2,0-0.3-0.1-0.3-0.2
			c-0.2-0.3,0-0.9,0-1.3c0.1-0.3,0.1-0.4-0.1-0.5c-0.1-0.1-0.2,0.1-0.3,0.2c-0.8,1.1-1,1.6-2.3,2.7l0,0c-1.1,0.7-2.7,1.5-3.7,1.3
			c-0.4-0.1-0.7-0.3-0.9-0.6c-0.5-0.9-0.5-3.2,2.2-9.4c0-0.1,0-0.2,0-0.2c-0.1,0-0.1-0.1-0.2,0c0,0-1.3,0.9-2.7,0.6
			c-2.1-0.3-3.4-2.9-4-7.3C50,6,50,6,49.9,5.9c-0.1,0-0.2,0-0.2,0.1c-2,4-4.1,5.9-6.2,5.5c-1.4-0.2-2.3-1.5-2.3-1.5
			c0-0.1-0.1-0.1-0.2-0.1c-0.1,0-0.1,0.1-0.1,0.2c0.5,6.7-0.3,8.9-1,9.6c-0.3,0.3-0.6,0.4-1,0.3c-1.1-0.2-2.3-1.5-3.2-2.6
			c-0.7-1.3-0.8-1.9-1.2-3.2c0-0.1-0.1-0.2-0.2-0.2c-0.1,0-0.2,0.1-0.2,0.4c-0.1,0.3-0.1,1-0.4,1.2c-0.1,0.1-0.2,0.1-0.4,0
			c-2.3-1.3-4.4-4.5-4.4-4.5c0-0.1-0.1-0.1-0.2-0.1c-0.1,0-0.1,0.1-0.1,0.2c1.6,7.4,1.1,9.9,0.4,10.7c-0.2,0.3-0.6,0.4-0.9,0.3
			c-0.5-0.1-0.9-0.4-0.9-0.4c-0.1-0.1-0.2,0-0.2,0c-0.1,0.1-0.1,0.2,0,0.2l0.1,0.1c0,0,0,0,0,0.1c0,0,0,0,0.1,0.1
			c1.9,2.6,3,4.6,3.2,6c0,0.9-0.3,1.6-1,2.1c-1,0.4-2.3,0.2-2.6,0.2c0,0-0.1,0-0.1,0c-0.1,0-0.1,0-0.2,0.1c0,0.1,0,0.1,0,0.2
			c0.1,0.2,2.9,4.9,6.8,6.1c0.2,0.1,0.4,0.1,0.6,0.2c0.4,0.1,0.8,0.2,1.2,0.2c3,0.5,6.3,0.4,8.4,0.1c-1.8,4.7-6.7,5.6-6.7,5.6
			c-0.3,0.1-0.5,0.1-0.7,0.1c0,0,0,0,0,0c-0.3,0.1-0.4,0.4-0.7,1l-0.6,1.3c-0.5,1,0.6,1.2,1.2,1l0,0c1.1-0.3,2.2-0.6,3.1-1.1
			c1.3-0.6,2.6-1.4,3.6-2.5c1-1,1.9-2.3,2.4-3.6c0.2-0.6,0.4-1.1,0.5-1.7l0.1,0c1.9,0.9,5.1,2.2,8.3,2.8c0.4,0.1,0.9,0.1,1.3,0.2
			c0.2,0,0.4,0,0.6,0.1c4.1,0.1,8.1-3.4,8.3-3.5c0.1,0,0.1-0.1,0.1-0.2c0-0.1-0.1-0.1-0.1-0.1c0,0,0,0-0.1,0c-0.3,0-1.6-0.3-2.4-1
			c-0.6-0.7-0.7-1.4-0.3-2.3c0.6-1.3,2.3-2.8,5-4.6C66,29.1,66,29,66,29c0,0,0,0,0.1-0.1l0.1,0c0.1-0.1,0.1-0.1,0.1-0.2
			c0-0.1-0.1-0.1-0.2-0.1c0,0-0.5,0.2-0.9,0.1c-0.4-0.1-0.6-0.3-0.8-0.6c-0.4-1-0.1-3.5,3.9-10C68.2,18.1,68.2,18,68.1,17.9
			L68.1,17.9z"/>
		<path id="XMLID_187_" class="st0" d="M46.9,52.4l-2.2-0.7c-1.2-0.4-2.4,7.8-11,7.8h-7.1c-4.8,0-6.4-1.7-6.4-9V9.4
			c0-3.3,2.3-4.7,4.5-5.2C25.3,4,26,3.9,26.4,3l0.5-1.5C27.3,0.2,26.4,0,25.7,0H3.5C2.7,0,2.3,0.3,2,0.7L1.3,2.4
			C1,3.1,1.1,3.9,2.3,4c4.3,1,5.6,1.6,5.6,5.3v45.3c0,3.3-2.3,4.7-4.5,5.2C2.8,60,2.1,60.1,1.8,61l-0.5,1.5C0.8,63.8,1.7,64,2.4,64
			h41.1c2.4,0,4-0.8,4-2.2v-8.6C47.5,52.9,47.3,52.5,46.9,52.4L46.9,52.4z"/>
	</g>
</g>
</svg>
