<?xml version="1.0" encoding="utf-8"?>
<!-- Generator: Adobe Illustrator 19.0.0, SVG Export Plug-In . SVG Version: 6.00 Build 0)  -->
<svg version="1.1" id="Layer_1" xmlns="http://www.w3.org/2000/svg" xmlns:xlink="http://www.w3.org/1999/xlink" x="0px" y="0px"
	 viewBox="0 0 66 66" style="enable-background:new 0 0 66 66;" xml:space="preserve">
<style type="text/css">
	.st0{fill:#EDE8EB;}
</style>
<g id="XMLID_65_">
	<path id="XMLID_66_" class="st0" d="M65.6,37.3c-0.9,0.1-2.2,0.3-3-0.3c-0.7-0.6-0.5-1.8-0.2-2.6c0.5-1.7,1.7-4.5,3-9.1
		c0.1-0.5-0.2-0.7-0.8-0.5c-0.6,0.2-3.3,1.4-5.7,2c-1.5,0.4-4.1,1.3-5.2-0.2c-0.4-0.5-0.5-1.1-0.5-1.7c0-0.4-0.2-3.6-1.1-2.3
		c-4.9,6.3-9.7,11.7-8.9,6c0.7-5.6,1.6-12,2.5-17.7c0.1-0.9,0-1.2-0.9-0.7c-0.8,0.5-1.6,1-2.4,1.5c-1,0.7-2.5,0.9-3.4,0.1
		c-1-0.8-4.7-9.7-5.3-10.9c-0.5-1-0.6-1-1.2,0C32,1.4,29.4,7,28,9.5c-1.2,2.1-4,0.7-5,0c-0.6-0.4-1-0.8-1.6-1.1
		c-0.2-0.1-0.5-0.3-0.8-0.2c-0.4,0.1-0.2,1-0.2,1.2c0.9,4.4,3,14.4,3,16.5c0,2.1-1.3,1.4-1.9,0.9c-0.5-0.4-5.2-4.2-10.4-6.5
		c-0.6-0.2-0.9-0.1-0.7,0.6c0.1,0.6,0.3,1.2,0.5,1.8c0.2,0.8,0.3,3.3-1.1,3.2c-3.4-0.2-7.5-0.7-9.2-0.5c-0.6,0.1-0.7,0.3-0.1,1.4
		c0.5,0.9,1.8,2.6,4,7.3c0.8,1.6,0.8,3.4-1.1,4.2c-0.4,0.2-1.7,0.7-2,1c-0.5,0.6,2.2,1.4,2.6,1.6c3.2,1.2,10.3,3.7,12.3,6.9
		c0.6,1-0.2,2.2-0.9,3c-0.3,0.4-1.8,2.4-0.3,2.2c5.4-0.9,10.8-1.1,16.4,0.6L30.9,66h4.2l-0.5-11.4c4,1.3,8.2,1.8,12.3,1
		c0.9-0.1,2.3-0.4,3.4-0.7c2.3-0.7,0.8-1.3,0.4-1.4c-1.4-0.4-2.4-2.4,0-3.6c5.7-3,8.2-4.2,15-11.6C66.2,37.7,66,37.2,65.6,37.3"/>
</g>
</svg>
